<svg width="729" height="399" viewBox="0 0 729 399" fill="none" xmlns="http://www.w3.org/2000/svg">
<path d="M69.8533 116.275L118.502 113.043L165.8 162.601L159.35 194.922L114.202 218.623L99.1528 181.994L69.8533 116.275Z" fill="#AE9989" stroke="#1D1D1B" stroke-width="1.7079" stroke-miterlimit="10"/>
<path d="M76.58 224.01C106.264 224.01 130.327 199.893 130.327 170.143C130.327 140.393 106.264 116.276 76.58 116.276C46.8961 116.276 22.8326 140.393 22.8326 170.143C22.8326 199.893 46.8961 224.01 76.58 224.01Z" fill="#63604A" stroke="#1D1D1B" stroke-width="1.7079" stroke-miterlimit="10"/>
<path d="M108.996 115.045C109.99 119.237 120.346 125.629 126.621 124.134L124.434 110.259C124.434 110.259 107.505 108.756 108.996 115.045Z" fill="#87F54E" stroke="#1D1D1B" stroke-width="1.7079" stroke-miterlimit="10"/>
<path d="M133.551 106.58C129.252 106.58 123.134 109.499 121.727 118.43C120.822 124.178 126.017 130.943 130.248 136.797C130.988 137.821 132.585 137.401 132.725 136.144C133.119 132.615 134.139 127.539 136.776 124.895C141.076 120.586 143.227 116.276 143.227 114.121C143.226 108.734 137.851 106.58 133.551 106.58Z" fill="#87F54E" stroke="#1D1D1B" stroke-width="1.7079" stroke-miterlimit="10"/>
<path d="M184.134 159.274C184.042 163.582 180.997 169.649 172.057 170.866C166.366 171.641 159.808 168.565 154.103 164.226C153.035 163.413 153.52 161.725 154.855 161.597C158.372 161.26 163.299 158.177 165.935 155.647C170.327 151.432 174.671 149.371 176.821 149.417C182.194 149.534 184.228 154.966 184.134 159.274Z" fill="#87F54E" stroke="#1D1D1B" stroke-width="1.7079" stroke-miterlimit="10"/>
<path d="M180.208 141.947C180.022 150.564 172.759 157.066 160.445 160.916C155.051 162.602 150.049 162.658 144.302 158.293C143.296 157.529 140.611 152.835 141.868 152.722C145.397 152.403 152.08 149.959 158.621 145.791C163.752 142.52 167.591 128.744 169.74 128.79C172.964 128.858 180.347 135.484 180.208 141.947Z" fill="#87F54E" stroke="#1D1D1B" stroke-width="1.7079" stroke-miterlimit="10"/>
<path d="M150.75 110.889C142.15 110.889 131.4 117.353 131.4 130.281C131.4 136.1 132.465 143.872 136.696 149.725C137.436 150.749 139.033 150.329 139.173 149.072C139.567 145.543 142.15 138.899 146.449 132.436C149.823 127.365 163.648 123.817 163.648 121.662C163.649 118.43 157.2 110.889 150.75 110.889Z" fill="#87F54E" stroke="#1D1D1B" stroke-width="1.7079" stroke-miterlimit="10"/>
<path d="M163.65 145.364C157.2 151.828 146.451 158.292 142.151 156.137C137.851 153.983 140.001 136.745 146.45 128.127C151.923 120.813 159.35 117.353 167.949 121.662C176.549 125.971 171.459 134.02 170.099 136.745C167.95 141.054 166.084 142.924 163.65 145.364Z" fill="#87F54E" stroke="#1D1D1B" stroke-width="1.7079" stroke-miterlimit="10"/>
<path d="M364.666 355.447C565.33 355.447 728 332.777 728 304.811C728 276.846 565.33 254.176 364.666 254.176C164.003 254.176 1.3327 276.846 1.3327 304.811C1.3327 332.777 164.003 355.447 364.666 355.447Z" fill="#758468" stroke="#1D1D1B" stroke-width="1.7079" stroke-miterlimit="10"/>
<path d="M655.921 116.275L607.273 113.043L559.975 162.601L566.424 194.922L611.573 218.623L626.622 181.994L655.921 116.275Z" fill="#AE9989" stroke="#1D1D1B" stroke-width="1.7079" stroke-miterlimit="10"/>
<path d="M649.196 224.01C678.88 224.01 702.944 199.893 702.944 170.143C702.944 140.393 678.88 116.276 649.196 116.276C619.512 116.276 595.449 140.393 595.449 170.143C595.449 199.893 619.512 224.01 649.196 224.01Z" fill="#63604A" stroke="#1D1D1B" stroke-width="1.7079" stroke-miterlimit="10"/>
<path d="M616.778 115.045C615.784 119.237 605.428 125.629 599.153 124.134L601.34 110.259C601.34 110.259 618.269 108.756 616.778 115.045Z" fill="#87F54E" stroke="#1D1D1B" stroke-width="1.7079" stroke-miterlimit="10"/>
<path d="M592.224 106.58C596.524 106.58 602.641 109.499 604.048 118.43C604.954 124.178 599.758 130.943 595.527 136.797C594.787 137.821 593.191 137.401 593.05 136.144C592.656 132.615 591.637 127.539 588.999 124.895C584.699 120.586 582.55 116.276 582.55 114.121C582.549 108.734 587.924 106.58 592.224 106.58Z" fill="#87F54E" stroke="#1D1D1B" stroke-width="1.7079" stroke-miterlimit="10"/>
<path d="M541.64 159.274C541.732 163.582 544.777 169.649 553.717 170.866C559.408 171.641 565.966 168.565 571.671 164.226C572.739 163.413 572.254 161.725 570.919 161.597C567.402 161.26 562.475 158.177 559.839 155.647C555.447 151.432 551.103 149.371 548.953 149.417C543.58 149.534 541.547 154.966 541.64 159.274Z" fill="#87F54E" stroke="#1D1D1B" stroke-width="1.7079" stroke-miterlimit="10"/>
<path d="M545.568 141.947C545.754 150.564 553.017 157.066 565.331 160.916C570.725 162.602 575.726 162.658 581.474 158.293C582.48 157.529 585.165 152.835 583.908 152.722C580.379 152.403 573.696 149.959 567.155 145.791C562.024 142.521 558.185 128.744 556.036 128.79C552.811 128.858 545.428 135.485 545.568 141.947Z" fill="#87F54E" stroke="#1D1D1B" stroke-width="1.7079" stroke-miterlimit="10"/>
<path d="M575.024 110.889C583.624 110.889 594.374 117.353 594.374 130.281C594.374 136.1 593.309 143.872 589.078 149.725C588.338 150.749 586.742 150.329 586.601 149.072C586.207 145.543 583.624 138.899 579.325 132.436C575.951 127.365 562.126 123.817 562.126 121.662C562.125 118.43 568.575 110.889 575.024 110.889Z" fill="#87F54E" stroke="#1D1D1B" stroke-width="1.7079" stroke-miterlimit="10"/>
<path d="M562.125 145.364C568.575 151.828 579.324 158.292 583.624 156.137C587.924 153.983 585.774 136.745 579.325 128.127C573.852 120.813 566.425 117.353 557.825 121.662C549.226 125.971 554.316 134.02 555.676 136.745C557.825 141.054 559.692 142.925 562.125 145.364Z" fill="#87F54E" stroke="#1D1D1B" stroke-width="1.7079" stroke-miterlimit="10"/>
<path d="M155.05 218.624C155.05 328.512 247.937 397.462 362.517 397.462C477.097 397.462 569.982 328.512 569.982 218.624C569.982 93.6728 477.097 1 362.517 1C247.937 1 155.05 93.6728 155.05 218.624Z" fill="#64614B" stroke="#1D1D1B" stroke-width="1.7079" stroke-miterlimit="10"/>
<path d="M359.292 334.976C88.4039 334.976 41.1058 306.965 41.1058 306.965C41.1058 306.965 64.7549 266.027 105.603 240.171C146.451 214.314 169.365 199.232 169.365 199.232C169.365 199.232 249.646 210.005 361.441 210.005C473.236 210.005 520.534 205.696 544.183 199.232C567.832 192.767 696.826 294.038 696.826 294.038C696.826 294.038 698.976 300.503 690.377 304.812C681.778 309.12 668.879 334.976 359.292 334.976Z" fill="#FDBB47" stroke="#1D1D1B" stroke-width="1.7079" stroke-miterlimit="10"/>
<path d="M153.976 320.971C153.976 320.971 145.376 344.673 151.826 374.838L209.923 376.779C213.152 376.887 215.649 373.962 215.025 370.785C213.142 361.203 209.874 342.15 209.874 325.28L153.976 320.971Z" fill="#3C352E" stroke="#1D1D1B" stroke-width="1.7079" stroke-miterlimit="10"/>
<path d="M210.948 376.993C215.104 376.993 218.473 360.111 218.473 339.286C218.473 318.46 215.104 301.578 210.948 301.578C206.792 301.578 203.424 318.46 203.424 339.286C203.424 360.111 206.792 376.993 210.948 376.993Z" fill="#3C352E" stroke="#1D1D1B" stroke-width="1.7079" stroke-miterlimit="10"/>
<path d="M347.155 331.867L352.842 212.159L206.648 203.54C206.648 203.54 163.65 229.397 137.851 253.098C120.307 269.215 95.8056 295.295 81.9206 310.336C77.1292 315.526 79.8199 323.959 86.728 325.396C114.39 331.151 159.35 339.285 220.623 342.882C260.642 345.232 304.012 345.822 330.426 347.103C339.246 347.532 346.734 340.708 347.155 331.867Z" fill="#CFD3BA" stroke="#1D1D1B" stroke-width="1.7079" stroke-miterlimit="10"/>
<path d="M225.998 263.873C236.685 263.873 245.348 255.191 245.348 244.48C245.348 233.77 236.685 225.088 225.998 225.088C215.312 225.088 206.649 233.77 206.649 244.48C206.649 255.191 215.312 263.873 225.998 263.873Z" fill="#7A5644" stroke="#1D1D1B" stroke-width="1.7079" stroke-miterlimit="10"/>
<path d="M231.372 254.247C231.372 254.247 241.046 270.337 271.146 270.337L266.846 266.028L275.446 263.873C275.446 263.873 258.247 266.028 238.898 246.636L231.372 254.247Z" fill="#C6C3AB" stroke="#1D1D1B" stroke-width="1.1386" stroke-miterlimit="10"/>
<path d="M191.71 255.634C191.71 255.634 177.105 267.408 148.842 257.036L154.358 254.471L147.023 249.484C147.023 249.484 162.433 257.435 187.257 245.893L191.71 255.634Z" fill="#C6C3AB" stroke="#1D1D1B" stroke-width="1.1386" stroke-miterlimit="10"/>
<path d="M215.248 274.645C228.309 274.645 238.897 264.034 238.897 250.944C238.897 237.854 228.309 227.242 215.248 227.242C202.187 227.242 191.599 237.854 191.599 250.944C191.599 264.034 202.187 274.645 215.248 274.645Z" fill="#8A7331" stroke="#1D1D1B" stroke-width="1.7079" stroke-miterlimit="10"/>
<path d="M207.724 271.413C220.785 271.413 231.373 260.801 231.373 247.711C231.373 234.621 220.785 224.01 207.724 224.01C194.663 224.01 184.075 234.621 184.075 247.711C184.075 260.801 194.663 271.413 207.724 271.413Z" fill="#FFF9C9"/>
<path d="M5.19551 301.145C0.940399 299.125 -0.347369 293.655 2.58599 289.963C11.9563 278.168 36.642 254.683 61.5306 239.093C95.9294 217.546 133.538 197.945 156.656 190.508C166.876 195.999 179.775 200.309 192.674 200.309C192.674 200.309 107.744 249.797 49.5782 308.928C45.0682 313.513 38.1828 314.764 32.3784 312.007L5.19551 301.145Z" fill="#CFD3BA" stroke="#1D1D1B" stroke-width="1.7079" stroke-miterlimit="10"/>
<path d="M571.8 320.971C571.8 320.971 580.4 344.673 573.95 374.838L515.853 376.779C512.624 376.887 510.127 373.962 510.751 370.785C512.634 361.203 515.902 342.15 515.902 325.28L571.8 320.971Z" fill="#3C352E" stroke="#1D1D1B" stroke-width="1.7079" stroke-miterlimit="10"/>
<path d="M514.826 376.993C518.982 376.993 522.351 360.111 522.351 339.286C522.351 318.46 518.982 301.578 514.826 301.578C510.671 301.578 507.302 318.46 507.302 339.286C507.302 360.111 510.671 376.993 514.826 376.993Z" fill="#3C352E" stroke="#1D1D1B" stroke-width="1.7079" stroke-miterlimit="10"/>
<path d="M378.621 331.867L372.934 212.159L519.128 203.54C519.128 203.54 562.125 229.397 587.925 253.098C605.468 269.215 629.97 295.295 643.855 310.336C648.646 315.526 645.956 323.959 639.048 325.396C611.386 331.151 566.426 339.285 505.153 342.882C465.134 345.232 421.763 345.822 395.35 347.103C386.53 347.532 379.041 340.708 378.621 331.867Z" fill="#CFD3BA" stroke="#1D1D1B" stroke-width="1.7079" stroke-miterlimit="10"/>
<path d="M499.777 263.873C510.464 263.873 519.127 255.191 519.127 244.48C519.127 233.77 510.464 225.088 499.777 225.088C489.091 225.088 480.428 233.77 480.428 244.48C480.428 255.191 489.091 263.873 499.777 263.873Z" fill="#7A5644" stroke="#1D1D1B" stroke-width="1.7079" stroke-miterlimit="10"/>
<path d="M494.403 254.247C494.403 254.247 484.729 270.337 454.63 270.337L458.929 266.028L450.329 263.873C450.329 263.873 467.528 266.028 486.878 246.636L494.403 254.247Z" fill="#C6C3AB" stroke="#1D1D1B" stroke-width="1.1386" stroke-miterlimit="10"/>
<path d="M534.065 255.634C534.065 255.634 548.67 267.408 576.933 257.036L571.417 254.471L578.753 249.484C578.753 249.484 563.342 257.435 538.518 245.893L534.065 255.634Z" fill="#C6C3AB" stroke="#1D1D1B" stroke-width="1.1386" stroke-miterlimit="10"/>
<path d="M510.527 274.645C523.588 274.645 534.176 264.034 534.176 250.944C534.176 237.854 523.588 227.242 510.527 227.242C497.466 227.242 486.878 237.854 486.878 250.944C486.878 264.034 497.466 274.645 510.527 274.645Z" fill="#8A7331" stroke="#1D1D1B" stroke-width="1.7079" stroke-miterlimit="10"/>
<path d="M518.052 271.413C531.113 271.413 541.701 260.801 541.701 247.711C541.701 234.621 531.113 224.01 518.052 224.01C504.991 224.01 494.403 234.621 494.403 247.711C494.403 260.801 504.991 271.413 518.052 271.413Z" fill="#FFF9C9"/>
<path d="M720.581 301.145C724.837 299.125 726.124 293.655 723.191 289.963C713.82 278.168 689.135 254.683 664.246 239.093C629.847 217.546 592.239 197.945 569.12 190.508C558.901 195.999 546.002 200.309 533.102 200.309C533.102 200.309 618.033 249.797 676.198 308.928C680.708 313.513 687.594 314.764 693.398 312.007L720.581 301.145Z" fill="#CFD3BA" stroke="#1D1D1B" stroke-width="1.7079" stroke-miterlimit="10"/>
<path d="M558.309 189.319C501.185 205.695 434.84 203.54 358.217 203.54C285.485 203.54 225.997 199.231 166.381 189.103C174.12 85.0751 258.977 7.46313 362.517 7.46313C464.702 7.46408 548.677 87.2514 558.309 189.319Z" fill="#5A9790" stroke="#1D1D1B" stroke-width="1.7079" stroke-miterlimit="10"/>
<path d="M456.333 176.809C455.227 164.366 452.837 145.021 448.513 142.132C445.566 140.163 440.382 139.101 435.614 138.52V133.514C444.214 129.205 444.214 124.895 444.214 124.895L450.664 120.586L454.963 118.432L452.813 114.123L448.514 107.658L462.143 103.755C462.647 103.611 462.712 102.921 462.242 102.686L450.664 96.8836L465.123 86.533C465.391 86.3409 465.359 85.9331 465.064 85.7855L452.813 79.6465L465 65.3975C465.252 65.1032 465.01 64.6519 464.626 64.7002L448.514 66.7184C451.736 55.4169 450.129 46.5348 449.122 42.7916C448.994 42.3156 448.328 42.2721 448.174 42.7405C445.94 49.5381 433.465 60.2549 433.465 60.2549C431.704 54.9618 418.413 41.0014 413.655 36.1161C413.08 35.5256 412.088 35.9855 412.152 36.8077L414.116 62.4084L392.979 58.5564C391.944 58.3681 391.138 59.444 391.609 60.3873L401.217 79.6455C401.217 79.6455 396.463 82.0272 392.617 83.9546C389.471 85.531 385.175 87.1074 383.095 87.8397C382.708 87.976 382.732 88.5238 383.124 88.6412L403.367 94.7272L389.053 104.974C388.668 105.25 388.664 105.827 389.059 106.09C391.97 108.031 399.067 109.81 399.067 109.81L394.768 116.274H407.667L403.368 122.739L409.818 124.893C414.117 127.048 418.418 129.202 418.418 129.202V137.238C412.579 136.803 404.696 136.49 403.368 137.821C401.916 139.277 397.523 156.454 394.824 167.455C383.901 166.436 373.011 165.832 362.521 165.832C346.266 165.832 330.023 167.043 314.676 168.881C310.238 158.873 302.323 152.904 302.323 152.904C302.323 152.904 306.623 148.595 310.923 144.285C315.222 139.976 315.222 131.357 315.222 131.357C319.522 129.202 317.372 120.583 317.372 116.274C317.372 111.965 313.073 111.965 313.073 111.965C313.073 111.965 315.222 109.811 310.923 99.0372C306.623 88.2636 295.874 81.8001 280.825 81.8001C265.776 81.8001 259.325 88.2646 250.726 103.347C242.126 118.43 252.876 133.512 252.876 133.512C252.876 142.131 267.925 152.905 267.925 152.905C259.122 163.198 257.331 173.481 257.079 178.981C237.434 183.469 224.928 187.379 224.928 187.379C261.476 206.772 517.315 191.688 517.315 191.688C517.315 191.688 491.242 183.854 456.333 176.809Z" fill="#1D1D1B"/>
<path d="M565.683 173.375C566.757 179.192 568.271 188.795 567.566 194.72C513.735 206.923 442.155 214.357 363.592 214.357C285.03 214.357 209.15 206.923 155.318 194.72C154.613 188.795 157.201 179.84 158.276 174.023C212.256 186.417 284.378 193.972 363.592 193.972C442.806 193.972 511.703 185.769 565.683 173.375Z" fill="#728165" stroke="#1D1D1B" stroke-width="1.7079" stroke-miterlimit="10"/>
<path d="M361.442 213.236C366.785 213.236 371.116 208.895 371.116 203.541C371.116 198.186 366.785 193.845 361.442 193.845C356.099 193.845 351.767 198.186 351.767 203.541C351.767 208.895 356.099 213.236 361.442 213.236Z" fill="#728165" stroke="#1D1D1B" stroke-width="1.7079" stroke-miterlimit="10"/>
<path d="M362.434 213.237H360.448C359.216 213.237 358.216 212.236 358.216 211V196.082C358.216 194.847 359.215 193.845 360.448 193.845H362.434C363.666 193.845 364.666 194.846 364.666 196.082V211C364.666 212.235 363.667 213.237 362.434 213.237Z" fill="#728165" stroke="#1D1D1B" stroke-width="1.7079" stroke-miterlimit="10"/>
<path d="M184.074 199.231C189.417 199.231 193.749 194.89 193.749 189.536C193.749 184.181 189.417 179.84 184.074 179.84C178.731 179.84 174.4 184.181 174.4 189.536C174.4 194.89 178.731 199.231 184.074 199.231Z" fill="#728165" stroke="#1D1D1B" stroke-width="1.7079" stroke-miterlimit="10"/>
<path d="M187.97 198.467L186.078 199.073C184.904 199.45 183.647 198.802 183.272 197.625L178.734 183.416C178.359 182.239 179.005 180.98 180.18 180.603L182.072 179.997C183.245 179.62 184.502 180.268 184.878 181.446L189.415 195.655C189.791 196.831 189.143 198.09 187.97 198.467Z" fill="#728165" stroke="#1D1D1B" stroke-width="1.7079" stroke-miterlimit="10"/>
<path d="M540.98 199.881C546.323 199.881 550.654 195.54 550.654 190.185C550.654 184.83 546.323 180.489 540.98 180.489C535.637 180.489 531.305 184.83 531.305 190.185C531.305 195.54 535.637 199.881 540.98 199.881Z" fill="#728165" stroke="#1D1D1B" stroke-width="1.7079" stroke-miterlimit="10"/>
<path d="M538.456 199.598L536.6 198.887C535.449 198.446 534.872 197.154 535.311 196L540.622 182.063C541.062 180.908 542.352 180.33 543.503 180.771L545.359 181.482C546.511 181.923 547.087 183.215 546.647 184.369L541.337 198.306C540.897 199.461 539.607 200.039 538.456 199.598Z" fill="#728165" stroke="#1D1D1B" stroke-width="1.7079" stroke-miterlimit="10"/>
</svg>
